<svg width="23" height="13" viewBox="0 0 23 13" fill="none" xmlns="http://www.w3.org/2000/svg">
<path d="M7.437 4.648H4.648V1.859H2.789V4.648H0V6.507H2.789V9.296H4.648V6.507H7.437V4.648ZM16.737 5.578C17.1393 5.57782 17.5369 5.49058 17.9023 5.32229C18.2678 5.15399 18.5925 4.90861 18.8542 4.603C19.1159 4.29739 19.3084 3.93877 19.4184 3.55177C19.5284 3.16477 19.5534 2.75854 19.4917 2.36096C19.4299 1.96338 19.2829 1.58387 19.0607 1.24848C18.8384 0.913081 18.5462 0.629739 18.2042 0.417897C17.8621 0.206055 17.4783 0.0707299 17.079 0.0212082C16.6797 -0.0283136 16.2744 0.00914107 15.891 0.131001C16.4391 0.909043 16.7316 1.8383 16.728 2.79C16.7258 3.74081 16.4338 4.66835 15.891 5.449C16.163 5.53491 16.4467 5.57843 16.732 5.578H16.737ZM12.089 5.578C12.6406 5.578 13.1798 5.41443 13.6385 5.10797C14.0971 4.80151 14.4546 4.36593 14.6657 3.85631C14.8768 3.34668 14.932 2.78591 14.8244 2.24489C14.7168 1.70388 14.4512 1.20693 14.0611 0.81688C13.6711 0.426831 13.1741 0.161205 12.6331 0.0535911C12.0921 -0.054023 11.5313 0.00120834 11.0217 0.212301C10.5121 0.423394 10.0765 0.780867 9.77003 1.23952C9.46357 1.69816 9.3 2.23739 9.3 2.789C9.29841 3.1557 9.36947 3.51909 9.50907 3.85818C9.64866 4.19728 9.85404 4.50536 10.1133 4.76466C10.3726 5.02396 10.6807 5.22934 11.0198 5.36894C11.3589 5.50853 11.7223 5.57959 12.089 5.578ZM18.243 7.586C18.6384 7.90412 18.9585 8.30581 19.1803 8.76224C19.4021 9.21868 19.5202 9.71855 19.526 10.226V12.085H22.31V10.226C22.31 8.794 20.107 7.911 18.238 7.586H18.243ZM12.089 7.437C10.23 7.437 6.512 8.367 6.512 10.226V12.085H17.662V10.226C17.662 8.366 13.944 7.437 12.084 7.437H12.089Z" fill="white"/>
</svg>
