<svg width="16" height="16" viewBox="0 0 16 16" fill="none" xmlns="http://www.w3.org/2000/svg">
<path fill-rule="evenodd" clip-rule="evenodd" d="M13.337 1.49902C13.1421 1.49902 12.9552 1.57645 12.8173 1.71428L12.8172 1.71436L6.32221 8.20744L5.97578 9.59317L7.36162 9.24671L13.8567 2.75362C13.8567 2.75359 13.8567 2.75356 13.8567 2.75354C13.9945 2.61572 14.0719 2.42882 14.0719 2.23395C14.0719 2.03903 13.9945 1.8521 13.8567 1.71428C13.7188 1.57645 13.5319 1.49902 13.337 1.49902ZM11.7567 0.653538C12.1759 0.234458 12.7443 -0.000976562 13.337 -0.000976562C13.9297 -0.000976562 14.4982 0.234489 14.9173 0.653618C15.3365 1.07275 15.5719 1.64121 15.5719 2.23395C15.5719 2.82669 15.3365 3.39515 14.9173 3.81428L14.9172 3.81436L8.27525 10.4544C8.17914 10.5504 8.05874 10.6186 7.9269 10.6516L5.1269 11.3516C4.87132 11.4155 4.60096 11.3406 4.41467 11.1543C4.22838 10.968 4.1535 10.6976 4.21739 10.442L4.91739 7.64205C4.95037 7.51013 5.01859 7.38967 5.11475 7.29354L11.7567 0.653618C11.7567 0.653591 11.7567 0.653564 11.7567 0.653538ZM0.62972 2.11267C1.03292 1.70946 1.57978 1.48295 2.15 1.48295H7.043C7.45721 1.48295 7.793 1.81873 7.793 2.23295C7.793 2.64716 7.45721 2.98295 7.043 2.98295H2.15C1.97761 2.98295 1.81228 3.05143 1.69038 3.17333C1.56848 3.29523 1.5 3.46056 1.5 3.63295V13.4219C1.5 13.5943 1.56848 13.7597 1.69038 13.8816C1.81228 14.0035 1.97761 14.0719 2.15 14.0719H11.939C12.1114 14.0719 12.2767 14.0035 12.3986 13.8816C12.5205 13.7597 12.589 13.5943 12.589 13.4219V8.52595C12.589 8.11173 12.9248 7.77595 13.339 7.77595C13.7532 7.77595 14.089 8.11173 14.089 8.52595V13.4219C14.089 13.9922 13.8625 14.539 13.4593 14.9422C13.0561 15.3454 12.5092 15.5719 11.939 15.5719H2.15C1.57978 15.5719 1.03292 15.3454 0.62972 14.9422C0.226517 14.539 0 13.9922 0 13.4219V3.63295C0 3.06273 0.226517 2.51587 0.62972 2.11267Z" fill="white"/>
</svg>
