<svg width="20" height="16" viewBox="0 0 20 16" fill="none" xmlns="http://www.w3.org/2000/svg">
<path d="M17.208 15.2999H1.9082C1.40118 15.2994 0.914766 15.0978 0.556152 14.7393C0.197539 14.3809 -0.0040888 13.8949 -0.00488281 13.3879L0.00585938 1.91689C0.00532347 1.4117 0.204944 0.926883 0.561035 0.568542C0.917127 0.210202 1.40059 0.00752746 1.90576 0.00488281H7.64307L9.55518 1.91689H17.2012C17.7081 1.91741 18.1938 2.11902 18.5522 2.47748C18.9107 2.83593 19.1123 3.32194 19.1128 3.82887V13.3879C19.1123 13.8936 18.9116 14.3786 18.5547 14.7368C18.1977 15.0951 17.7137 15.2975 17.208 15.2999ZM12.4312 9.56288C11.0962 9.56288 8.60596 10.2199 8.60596 11.4749V12.4309H16.252V11.4749C16.252 10.2159 13.7652 9.55888 12.4312 9.55888V9.56288ZM3.08789 7.17387V8.41487H4.9541V10.2769H6.19482V8.41487H8.05615V7.17387H6.19482V5.29988H4.9541V7.16588L3.08789 7.17387ZM12.4312 4.78488C11.9241 4.78541 11.4377 4.98699 11.0791 5.34541C10.7205 5.70384 10.5189 6.18986 10.5181 6.69688C10.5191 7.20355 10.7209 7.68909 11.0796 8.04698C11.4382 8.40487 11.9245 8.60588 12.4312 8.60588C12.9371 8.60509 13.4221 8.40367 13.7798 8.04581C14.1375 7.68794 14.3383 7.20285 14.3389 6.69688C14.3397 6.18987 14.1395 5.70327 13.7817 5.34401C13.424 4.98475 12.9382 4.78221 12.4312 4.78088V4.78488Z" fill="white"/>
</svg>
