<svg width="14" height="14" viewBox="0 0 14 14" fill="none" xmlns="http://www.w3.org/2000/svg">
<path d="M13.6 11.9229L10.916 9.23789C10.8559 9.1778 10.7844 9.13017 10.7059 9.09774C10.6273 9.06531 10.543 9.04871 10.458 9.04889H10.019C10.8961 7.92486 11.3114 6.50861 11.1803 5.08892C11.0492 3.66923 10.3815 2.353 9.31341 1.40861C8.24531 0.464223 6.85721 -0.0372122 5.43215 0.00654711C4.00709 0.0503064 2.65238 0.635965 1.64423 1.64411C0.636087 2.65226 0.0504285 4.00697 0.00666918 5.43203C-0.0370901 6.85709 0.464346 8.24519 1.40874 9.31329C2.35313 10.3814 3.66935 11.0491 5.08904 11.1802C6.50874 11.3113 7.92498 10.896 9.04902 10.0189V10.4579C9.04883 10.5429 9.06543 10.6271 9.09786 10.7057C9.13029 10.7843 9.17792 10.8557 9.23802 10.9159L11.923 13.5999C11.9829 13.66 12.054 13.7078 12.1323 13.7403C12.2107 13.7729 12.2947 13.7896 12.3795 13.7896C12.4644 13.7896 12.5484 13.7729 12.6267 13.7403C12.705 13.7078 12.7762 13.66 12.836 13.5999L13.598 12.8379C13.7191 12.7166 13.7873 12.5522 13.7877 12.3808C13.7881 12.2094 13.7206 12.0448 13.6 11.9229ZM5.60001 9.04989C4.91852 9.0493 4.25249 8.84671 3.68609 8.46772C3.1197 8.08873 2.67835 7.55035 2.41783 6.92062C2.15731 6.29088 2.0893 5.59805 2.2224 4.92968C2.35549 4.26131 2.68373 3.64739 3.16562 3.1655C3.64751 2.68361 4.26143 2.35537 4.9298 2.22227C5.59818 2.08917 6.291 2.15718 6.92074 2.41771C7.55047 2.67823 8.08885 3.11958 8.46784 3.68597C8.84683 4.25237 9.04942 4.9184 9.05002 5.59989C9.05067 6.05314 8.96189 6.50206 8.78874 6.92093C8.61559 7.3398 8.36149 7.72039 8.041 8.04088C7.72051 8.36137 7.33992 8.61547 6.92105 8.78862C6.50218 8.96176 6.05326 9.05055 5.60001 9.04989Z" fill="#787879"/>
</svg>
