<svg width="14" height="16" viewBox="0 0 14 16" fill="none" xmlns="http://www.w3.org/2000/svg">
<path d="M6.948 7.94098C7.73319 7.94098 8.50075 7.70814 9.15361 7.27191C9.80648 6.83568 10.3153 6.21565 10.6158 5.49023C10.9163 4.76481 10.9949 3.96657 10.8417 3.19647C10.6885 2.42637 10.3104 1.71898 9.75521 1.16376C9.2 0.60855 8.49261 0.230444 7.72251 0.0772608C6.9524 -0.0759225 6.15417 0.00269669 5.42875 0.303177C4.70332 0.603656 4.08329 1.1125 3.64707 1.76536C3.21084 2.41823 2.978 3.18579 2.978 3.97098C2.978 5.02389 3.39627 6.03367 4.14079 6.77819C4.88531 7.52271 5.89509 7.94098 6.948 7.94098ZM9.727 8.93398H9.209C8.50006 9.26085 7.72867 9.43011 6.948 9.43011C6.16733 9.43011 5.39594 9.26085 4.687 8.93398H4.169C3.06391 8.93424 2.00412 9.37315 1.22242 10.1543C0.440729 10.9354 0.00106 11.9949 0 13.1V14.39C0 14.7849 0.156876 15.1636 0.436118 15.4429C0.71536 15.7221 1.09409 15.879 1.489 15.879H12.407C12.6027 15.8795 12.7966 15.8414 12.9776 15.767C13.1586 15.6925 13.3231 15.5831 13.4618 15.445C13.6004 15.3069 13.7105 15.1428 13.7857 14.9621C13.8609 14.7814 13.8997 14.5877 13.9 14.392V13.1C13.8996 12.5524 13.7914 12.0102 13.5814 11.5044C13.3715 10.9986 13.064 10.5392 12.6765 10.1522C12.289 9.76528 11.8291 9.45845 11.323 9.24925C10.8169 9.04005 10.2746 8.93258 9.727 8.93298V8.93398Z" fill="white"/>
</svg>
