<svg width="23" height="13" viewBox="0 0 23 13" fill="none" xmlns="http://www.w3.org/2000/svg">
<path d="M19.9141 12.0849V10.2259C19.9083 9.71849 19.7899 9.21864 19.5679 8.76233C19.3459 8.30602 19.0256 7.90458 18.6299 7.5869C20.4979 7.9119 22.7012 8.79391 22.7012 10.2259V12.0849H19.9141ZM6.89893 12.0849V10.2259C6.89893 8.36691 10.617 7.4359 12.478 7.4359C14.339 7.4359 18.0552 8.36591 18.0552 10.2259V12.0849H6.89893ZM3.89111 5.8519L1.41504 8.3259L0.000976562 6.9119L2.4751 4.4379L-0.000976562 1.9619L1.41504 0.546909L3.89111 3.02291L6.36475 0.546909L7.77881 1.9619L5.30518 4.4359L7.77881 6.9119L6.36475 8.3259L3.89111 5.8519ZM16.2788 5.45191C16.8212 4.67151 17.1128 3.74429 17.1147 2.7939C17.1187 1.84261 16.8266 0.913661 16.2788 0.135899C16.5522 0.0479654 16.8378 0.00343634 17.125 0.00390999C17.491 0.00364308 17.8533 0.0756914 18.1914 0.215931C18.5295 0.35617 18.8364 0.561835 19.0947 0.821094C19.3531 1.08035 19.5578 1.3881 19.6968 1.72666C19.8358 2.06522 19.9064 2.42791 19.9048 2.7939C19.9062 3.15976 19.8354 3.5223 19.6963 3.86069C19.5572 4.19908 19.3526 4.50665 19.0942 4.76572C18.8359 5.02479 18.5289 5.23027 18.1909 5.37033C17.8529 5.5104 17.4909 5.5823 17.125 5.5819C16.8377 5.58173 16.5521 5.53652 16.2788 5.44791V5.45191ZM9.68896 2.7939C9.68844 2.42737 9.76037 2.06433 9.90039 1.72559C10.0404 1.38685 10.2457 1.07908 10.5049 0.819904C10.7641 0.560724 11.0719 0.355238 11.4106 0.215214C11.7494 0.0751896 12.1125 0.00338336 12.479 0.00390999C12.8448 0.00390658 13.2071 0.0761534 13.5449 0.216511C13.8827 0.356868 14.1896 0.562563 14.4478 0.821796C14.7059 1.08103 14.9099 1.3887 15.0488 1.72713C15.1877 2.06556 15.2584 2.42808 15.2568 2.7939C15.2584 3.15963 15.1878 3.52207 15.0488 3.86039C14.9099 4.1987 14.7054 4.50623 14.4473 4.76531C14.1891 5.02438 13.8827 5.22989 13.5449 5.37003C13.2071 5.51017 12.8447 5.58216 12.479 5.5819C12.1122 5.58269 11.7487 5.511 11.4097 5.37094C11.0707 5.23089 10.7632 5.02524 10.5039 4.7658C10.2446 4.50635 10.0387 4.19822 9.89893 3.85913C9.75911 3.52005 9.68791 3.15668 9.68896 2.78991V2.7939Z" fill="white"/>
</svg>
