<svg width="20" height="21" viewBox="0 0 20 21" fill="none" xmlns="http://www.w3.org/2000/svg">
<path d="M17.994 1.00014H1.99998C1.47145 1.00305 0.965566 1.21504 0.592869 1.5898C0.220172 1.96456 0.0109686 2.47161 0.0109766 3.00014L0.000976562 20.9941L4.00098 16.9941H18.001C18.531 16.9928 19.0389 16.7817 19.4137 16.4069C19.7885 16.0321 19.9997 15.5242 20.001 14.9941V2.99414C19.9997 2.46411 19.7885 1.95617 19.4137 1.58139C19.0389 1.2066 18.531 0.995461 18.001 0.994141L17.994 1.00014ZM3.99398 8.00014H15.994V10.0001H3.99398V8.00014ZM11.994 13.0001H3.99398V11.0001H11.994V13.0001ZM15.994 7.00014H3.99398V5.00014H15.994V7.00014Z" fill="#1E2327"/>
</svg>
