<svg width="11" height="8" viewBox="0 0 11 8" fill="none" xmlns="http://www.w3.org/2000/svg">
<rect width="11" height="8" fill="#E5E5E5"/>
<path d="M13.0712 -5.49991C13.3239 -5.50487 13.5751 -5.459 13.8097 -5.36504C14.0444 -5.27107 14.2578 -5.13092 14.4372 -4.95291C14.6184 -4.78298 14.762 -4.57707 14.859 -4.34838C14.9559 -4.11969 15.004 -3.87327 15.0002 -3.62491V10.1251C15.0042 10.3734 14.9562 10.6198 14.8595 10.8484C14.7627 11.0771 14.6192 11.2831 14.4382 11.4531C14.2588 11.6311 14.0454 11.7713 13.8107 11.8652C13.5761 11.9592 13.3249 12.0051 13.0722 12.0001H-1.07079C-1.32351 12.0051 -1.57465 11.9592 -1.8093 11.8652C-2.04396 11.7713 -2.25734 11.6311 -2.43679 11.4531C-2.61796 11.2832 -2.76162 11.0773 -2.85857 10.8486C-2.95552 10.6199 -3.00362 10.3735 -2.99979 10.1251V-3.62491C-3.00362 -3.87327 -2.95552 -4.11969 -2.85857 -4.34838C-2.76162 -4.57707 -2.61796 -4.78298 -2.43679 -4.95291C-2.25734 -5.13092 -2.04396 -5.27107 -1.8093 -5.36504C-1.57465 -5.459 -1.32351 -5.50487 -1.07079 -5.49991H0.857213V-7.53091C0.856556 -7.59316 0.86894 -7.65486 0.893569 -7.71204C0.918198 -7.76922 0.954525 -7.82061 1.00021 -7.86291C1.04512 -7.90751 1.09854 -7.94262 1.15729 -7.96615C1.21605 -7.98969 1.27893 -8.00117 1.34221 -7.99991H2.94621C3.00949 -8.00117 3.07238 -7.98969 3.13113 -7.96615C3.18988 -7.94262 3.2433 -7.90751 3.28821 -7.86291C3.33354 -7.82044 3.36949 -7.76897 3.39377 -7.7118C3.41805 -7.65462 3.43012 -7.59301 3.42921 -7.53091V-5.49991H8.57221V-7.53091C8.5713 -7.59301 8.58337 -7.65462 8.60765 -7.7118C8.63193 -7.76897 8.66789 -7.82044 8.71321 -7.86291C8.75812 -7.90751 8.81154 -7.94262 8.87029 -7.96615C8.92905 -7.98969 8.99193 -8.00117 9.05521 -7.99991H10.6622C10.7255 -8.00117 10.7884 -7.98969 10.8471 -7.96615C10.9059 -7.94262 10.9593 -7.90751 11.0042 -7.86291C11.0495 -7.82044 11.0855 -7.76897 11.1098 -7.7118C11.1341 -7.65462 11.1461 -7.59301 11.1452 -7.53091V-5.49991H13.0712ZM12.8302 10.1251C12.8921 10.1214 12.95 10.0934 12.9912 10.0471C13.0144 10.0278 13.0334 10.0041 13.0472 9.97729C13.0609 9.95047 13.0691 9.92115 13.0712 9.89109V-1.74991H-1.07079V9.89109C-1.06868 9.92115 -1.06051 9.95047 -1.04676 9.97729C-1.03301 10.0041 -1.01397 10.0278 -0.990787 10.0471C-0.94957 10.0934 -0.891667 10.1214 -0.829787 10.1251H12.8302ZM10.7002 2.27309C10.7509 2.23862 10.7922 2.19202 10.8203 2.13753C10.8484 2.08304 10.8625 2.02239 10.8612 1.96109C10.8603 1.89446 10.8455 1.82875 10.8178 1.76815C10.79 1.70754 10.75 1.65338 10.7002 1.60909L9.81621 0.750093C9.76938 0.701193 9.71321 0.66219 9.65103 0.635394C9.58885 0.608598 9.52192 0.594553 9.45421 0.594093C9.3921 0.59234 9.33049 0.605606 9.2746 0.632766C9.21871 0.659925 9.17021 0.700175 9.13321 0.750093L4.67321 5.05009L2.90621 3.28909C2.80143 3.21186 2.67438 3.17079 2.54421 3.17209C2.48561 3.16926 2.42704 3.17815 2.37192 3.19825C2.3168 3.21834 2.26625 3.24922 2.22321 3.28909L1.29921 4.18909C1.24865 4.22348 1.20746 4.26992 1.17935 4.32421C1.15124 4.37851 1.1371 4.43896 1.13821 4.50009C1.13914 4.56673 1.15394 4.63244 1.18166 4.69304C1.20938 4.75364 1.24941 4.80781 1.29921 4.85209L4.31221 7.78209C4.34921 7.83201 4.39771 7.87226 4.4536 7.89942C4.50949 7.92658 4.5711 7.93985 4.63321 7.93809C4.7652 7.9402 4.89419 7.89873 5.00021 7.82009L10.7002 2.27309Z" fill="#1E2327"/>
</svg>
