<svg xmlns="http://www.w3.org/2000/svg" xmlns:xlink="http://www.w3.org/1999/xlink" width="16" height="16" viewBox="0 0 16 16">
  <defs>
    <style>
      .cls-1 {
        fill: none;
        stroke: #707070;
        stroke-width: 0.1px;
      }

      .cls-2 {
        clip-path: url(#clip-path);
      }

      .cls-3 {
        fill: #3481c4;
      }
    </style>
    <clipPath id="clip-path">
      <rect id="Rectangle_76" data-name="Rectangle 76" class="cls-1" width="16" height="16" transform="translate(188 271)"/>
    </clipPath>
  </defs>
  <g id="icon_text_to_voice" data-name="icon_text to voice" class="cls-2" transform="translate(-188 -271)">
    <path id="Union_5" data-name="Union 5" class="cls-3" d="M-.11,12.013V10.75c0-1.679,3.628-2.526,5.445-2.526s5.445.847,5.445,2.526v1.264Zm11.493-4.2a4.774,4.774,0,0,0,0-6.783L12.493,0a5.9,5.9,0,0,1,0,8.843ZM3.02,4.437A2.351,2.351,0,1,1,5.371,6.788,2.351,2.351,0,0,1,3.02,4.437ZM9.1,5.647a1.972,1.972,0,0,0,0-2.457L10.24,2.122a3.072,3.072,0,0,1,0,4.592Z" transform="translate(189 273)"/>
  </g>
</svg>
