<svg width="18" height="20" viewBox="0 0 18 20" fill="none" xmlns="http://www.w3.org/2000/svg">
<path d="M16.0712 2.49997C16.3239 2.49501 16.5751 2.54087 16.8097 2.63484C17.0444 2.7288 17.2578 2.86895 17.4372 3.04697C17.6184 3.2169 17.762 3.42281 17.859 3.6515C17.9559 3.88019 18.004 4.12661 18.0002 4.37497V18.125C18.0042 18.3733 17.9562 18.6196 17.8595 18.8483C17.7627 19.077 17.6192 19.283 17.4382 19.453C17.2588 19.631 17.0454 19.7711 16.8107 19.8651C16.5761 19.9591 16.3249 20.0049 16.0722 20H1.92921C1.67649 20.0049 1.42535 19.9591 1.1907 19.8651C0.956044 19.7711 0.74266 19.631 0.563213 19.453C0.382044 19.283 0.238379 19.0771 0.141428 18.8484C0.0444761 18.6198 -0.00362335 18.3733 0.000212653 18.125V4.37497C-0.00362335 4.12661 0.0444761 3.88019 0.141428 3.6515C0.238379 3.42281 0.382044 3.2169 0.563213 3.04697C0.74266 2.86895 0.956044 2.7288 1.1907 2.63484C1.42535 2.54087 1.67649 2.49501 1.92921 2.49997H3.85721V0.468971C3.85656 0.406717 3.86894 0.345014 3.89357 0.287834C3.9182 0.230655 3.95452 0.179264 4.00021 0.136971C4.04512 0.0923717 4.09854 0.0572615 4.15729 0.0337259C4.21605 0.0101903 4.27893 -0.00128911 4.34221 -2.84258e-05H5.94621C6.00949 -0.00128911 6.07238 0.0101903 6.13113 0.0337259C6.18988 0.0572615 6.2433 0.0923717 6.28821 0.136971C6.33354 0.179441 6.36949 0.230911 6.39377 0.288082C6.41805 0.345253 6.43012 0.406865 6.42921 0.468971V2.49997H11.5722V0.468971C11.5713 0.406865 11.5834 0.345253 11.6077 0.288082C11.6319 0.230911 11.6679 0.179441 11.7132 0.136971C11.7581 0.0923717 11.8115 0.0572615 11.8703 0.0337259C11.929 0.0101903 11.9919 -0.00128911 12.0552 -2.84258e-05H13.6622C13.7255 -0.00128911 13.7884 0.0101903 13.8471 0.0337259C13.9059 0.0572615 13.9593 0.0923717 14.0042 0.136971C14.0495 0.179441 14.0855 0.230911 14.1098 0.288082C14.1341 0.345253 14.1461 0.406865 14.1452 0.468971V2.49997H16.0712ZM15.8302 18.125C15.8921 18.1213 15.95 18.0933 15.9912 18.047C16.0144 18.0277 16.0334 18.004 16.0472 17.9772C16.0609 17.9504 16.0691 17.921 16.0712 17.891V6.24997H1.92921V17.891C1.93132 17.921 1.93949 17.9504 1.95324 17.9772C1.96699 18.004 1.98603 18.0277 2.00921 18.047C2.05043 18.0933 2.10833 18.1213 2.17021 18.125H15.8302ZM13.7002 10.273C13.7509 10.2385 13.7922 10.1919 13.8203 10.1374C13.8484 10.0829 13.8625 10.0223 13.8612 9.96097C13.8603 9.89434 13.8455 9.82863 13.8178 9.76802C13.79 9.70742 13.75 9.65325 13.7002 9.60897L12.8162 8.74997C12.7694 8.70107 12.7132 8.66207 12.651 8.63527C12.5888 8.60848 12.5219 8.59443 12.4542 8.59397C12.3921 8.59222 12.3305 8.60548 12.2746 8.63264C12.2187 8.6598 12.1702 8.70005 12.1332 8.74997L7.67321 13.05L5.90621 11.289C5.80143 11.2117 5.67438 11.1707 5.54421 11.172C5.48561 11.1691 5.42704 11.178 5.37192 11.1981C5.3168 11.2182 5.26625 11.2491 5.22321 11.289L4.29921 12.189C4.24865 12.2234 4.20746 12.2698 4.17935 12.3241C4.15124 12.3784 4.1371 12.4388 4.13821 12.5C4.13914 12.5666 4.15394 12.6323 4.18166 12.6929C4.20938 12.7535 4.24941 12.8077 4.29921 12.852L7.31221 15.782C7.34921 15.8319 7.39771 15.8721 7.4536 15.8993C7.50949 15.9265 7.5711 15.9397 7.63321 15.938C7.7652 15.9401 7.89419 15.8986 8.00021 15.82L13.7002 10.273Z" fill="#1E2327"/>
</svg>
