<svg width="19" height="18" viewBox="0 0 19 18" fill="none" xmlns="http://www.w3.org/2000/svg">
<path d="M19.0001 8.98801C18.9956 6.60401 18.0454 4.31919 16.358 2.63504C14.6707 0.950886 12.3841 0.0050087 10.0001 0.00501295C7.68598 0.00191068 5.46023 0.893354 3.78807 2.49301L1.98807 0.701014C1.90676 0.620033 1.80329 0.564944 1.69072 0.542695C1.57814 0.520445 1.46149 0.532033 1.35549 0.575995C1.24949 0.619957 1.15888 0.694323 1.0951 0.789717C1.03131 0.885111 0.9972 0.997258 0.99707 1.11201V6.38801C0.99707 6.5421 1.05828 6.68988 1.16724 6.79884C1.2762 6.9078 1.42398 6.96901 1.57807 6.96901H6.85707C6.97183 6.96888 7.08397 6.93477 7.17937 6.87099C7.27476 6.8072 7.34913 6.71659 7.39309 6.61059C7.43705 6.50459 7.44864 6.38795 7.42639 6.27537C7.40414 6.16279 7.34905 6.05932 7.26807 5.97801L5.42507 4.13501C6.6625 2.9686 8.29956 2.32022 10.0001 2.32301C10.8772 2.32249 11.7458 2.49486 12.5563 2.83028C13.3667 3.16569 14.1031 3.65757 14.7233 4.27778C15.3435 4.898 15.8354 5.63438 16.1708 6.44483C16.5062 7.25528 16.6786 8.1239 16.6781 9.00101C16.6785 9.87804 16.506 10.7466 16.1705 11.5569C15.835 12.3672 15.3431 13.1035 14.7229 13.7236C14.1027 14.3437 13.3664 14.8355 12.556 15.1708C11.7456 15.5062 10.8771 15.6785 10.0001 15.678C8.49389 15.6806 7.03142 15.1719 5.85207 14.235C5.6839 14.1032 5.47316 14.0376 5.25987 14.0509C5.04659 14.0642 4.8456 14.1553 4.69507 14.307L4.28807 14.716C4.20153 14.802 4.13403 14.9052 4.08997 15.0189C4.0459 15.1327 4.02625 15.2544 4.03228 15.3763C4.03832 15.4981 4.06991 15.6173 4.125 15.7261C4.18009 15.835 4.25746 15.931 4.35207 16.008C5.95247 17.3016 7.94928 18.0049 10.0071 18C12.3933 17.9929 14.6794 17.0405 16.3649 15.3514C18.0504 13.6623 18.998 11.3742 19.0001 8.98801ZM12.4351 11.843L12.7881 11.388C12.9298 11.2057 12.9933 10.9745 12.9646 10.7453C12.9359 10.5162 12.8174 10.3078 12.6351 10.166L11.1621 9.01301V5.22601C11.1621 4.99501 11.0703 4.77347 10.907 4.61012C10.7436 4.44678 10.5221 4.35501 10.2911 4.35501H9.71007C9.47907 4.35501 9.25752 4.44678 9.09418 4.61012C8.93084 4.77347 8.83907 4.99501 8.83907 5.22601V10.149L11.2131 11.995C11.3953 12.1368 11.6264 12.2005 11.8555 12.172C12.0847 12.1435 12.2931 12.0252 12.4351 11.843Z" fill="#1E2327"/>
</svg>
