<svg width="19" height="19" viewBox="0 0 19 19" fill="none" xmlns="http://www.w3.org/2000/svg">
<path d="M9.00119 9.19687e-06C10.5837 -0.0103175 12.1392 0.410021 13.5012 1.21601C14.8627 2.00758 15.9954 3.13918 16.7882 4.50001C17.5942 5.86195 18.0145 7.41748 18.0042 9.00001C18.0145 10.5825 17.5942 12.1381 16.7882 13.5C15.9959 14.8623 14.8632 15.9953 13.5012 16.788C12.1389 17.5929 10.5834 18.0122 9.00119 18.001C7.41894 18.0122 5.86343 17.5929 4.50119 16.788C3.13987 15.9951 2.0079 14.862 1.21619 13.5C0.410198 12.1381 -0.0101409 10.5825 0.00018579 9.00001C-0.0101409 7.41748 0.410198 5.86195 1.21619 4.50001C2.00817 3.13956 3.13974 2.00799 4.50019 1.21601C5.86242 0.409846 7.41832 -0.0104991 9.00119 9.19687e-06ZM9.00119 16.258C10.2773 16.2661 11.5316 15.9274 12.6302 15.278C13.728 14.6398 14.6409 13.7269 15.2792 12.629C15.9286 11.5305 16.2673 10.2761 16.2592 9.00001C16.2673 7.7239 15.9286 6.46955 15.2792 5.37101C14.6409 4.27315 13.728 3.36025 12.6302 2.72201C11.5316 2.0726 10.2773 1.73387 9.00119 1.74201C7.72507 1.73387 6.47073 2.0726 5.37219 2.72201C4.27433 3.36025 3.36142 4.27315 2.72319 5.37101C2.07378 6.46955 1.73505 7.7239 1.74319 9.00001C1.73505 10.2761 2.07378 11.5305 2.72319 12.629C3.36101 13.7271 4.27357 14.6404 5.37119 15.279C6.47002 15.9286 7.72473 16.2663 9.00119 16.258ZM12.8882 7.00501C12.894 6.41812 12.7095 5.84515 12.3622 5.37201C11.9971 4.87667 11.5165 4.47809 10.9622 4.21101C10.4237 3.93127 9.82695 3.78225 9.22019 3.77601C8.48961 3.75522 7.76611 3.92404 7.12019 4.26601C6.49657 4.63287 5.96342 5.13526 5.56019 5.73601C5.51109 5.83754 5.49234 5.95108 5.50619 6.06301C5.51096 6.12021 5.52798 6.17572 5.55611 6.22576C5.58423 6.2758 5.6228 6.3192 5.66919 6.35301L6.68519 7.11501C6.7271 7.14891 6.77604 7.17306 6.82845 7.18568C6.88086 7.19831 6.93543 7.1991 6.98819 7.18801C7.09098 7.16702 7.18546 7.11665 7.26019 7.04301C7.48284 6.72561 7.75261 6.44404 8.06019 6.20801C8.34961 6.03226 8.68372 5.94404 9.02219 5.95401C9.38188 5.94956 9.73503 6.05036 10.0382 6.24401C10.1715 6.31386 10.2838 6.41791 10.3635 6.5455C10.4433 6.67308 10.4877 6.8196 10.4922 6.97001C10.4917 7.07905 10.4689 7.18684 10.4252 7.28675C10.3815 7.38666 10.3179 7.47659 10.2382 7.55101C9.99607 7.73752 9.74147 7.90725 9.47619 8.05901L9.40319 8.09501C9.01011 8.30306 8.64433 8.55901 8.31419 8.85701C8.12584 9.04068 7.97711 9.26099 7.87719 9.50436C7.77726 9.74772 7.72825 10.009 7.73319 10.272V10.599C7.73223 10.6563 7.743 10.7132 7.76484 10.7661C7.78668 10.8191 7.81913 10.867 7.86019 10.907C7.90015 10.9481 7.94809 10.9805 8.00105 11.0024C8.05402 11.0242 8.1109 11.035 8.16819 11.034H9.83719C9.89447 11.035 9.95135 11.0242 10.0043 11.0024C10.0573 10.9805 10.1052 10.9481 10.1452 10.907C10.1862 10.867 10.2187 10.8191 10.2405 10.7661C10.2624 10.7132 10.2731 10.6563 10.2722 10.599V10.381C10.2748 10.2931 10.2995 10.2072 10.3438 10.1312C10.3882 10.0552 10.4509 9.99155 10.5262 9.94601C10.7044 9.79154 10.8993 9.65738 11.1072 9.54601C11.5488 9.31774 11.9533 9.0241 12.3072 8.67501C12.6974 8.20747 12.904 7.61379 12.8882 7.00501ZM10.5292 13.065C10.5307 12.8649 10.4912 12.6667 10.4131 12.4825C10.335 12.2983 10.22 12.132 10.0752 11.994C9.93716 11.8492 9.77092 11.7342 9.58671 11.6561C9.40251 11.578 9.20425 11.5385 9.00419 11.54C8.80412 11.5385 8.60586 11.578 8.42166 11.6561C8.23745 11.7342 8.07121 11.8492 7.93319 11.994C7.78835 12.132 7.67333 12.2983 7.59525 12.4825C7.51716 12.6667 7.47766 12.8649 7.47919 13.065C7.47766 13.2651 7.51716 13.4633 7.59525 13.6475C7.67333 13.8317 7.78835 13.998 7.93319 14.136C8.07103 14.2801 8.23687 14.3945 8.42052 14.4723C8.60417 14.55 8.80177 14.5894 9.00119 14.588C9.20125 14.5895 9.39951 14.55 9.58371 14.4719C9.76792 14.3939 9.93416 14.2788 10.0722 14.134C10.2166 13.9961 10.3313 13.8302 10.4092 13.6463C10.4871 13.4625 10.5266 13.2647 10.5252 13.065H10.5292Z" fill="#1E2327"/>
</svg>
