<svg width="18" height="18" viewBox="0 0 18 18" fill="none" xmlns="http://www.w3.org/2000/svg">
<path d="M15.8021 0.104978C15.9324 0.0285395 16.0824 -0.00751368 16.2332 0.00138731C16.384 0.0102883 16.5287 0.0637422 16.6491 0.154978C16.779 0.23482 16.8817 0.351963 16.944 0.491111C17.0062 0.63026 17.0251 0.784948 16.9981 0.934978L14.6111 15.28C14.5896 15.3995 14.5411 15.5124 14.4691 15.6102C14.3972 15.708 14.3038 15.7879 14.1961 15.844C14.0958 15.9089 13.9802 15.9464 13.8609 15.9528C13.7416 15.9591 13.6227 15.934 13.5161 15.88L9.3651 14.15L7.27309 16.706C7.20744 16.7989 7.12037 16.8747 7.01924 16.927C6.91812 16.9792 6.80591 17.0063 6.69209 17.006C6.47216 17.0113 6.25816 16.9343 6.09209 16.79C6.00745 16.7127 5.94116 16.6174 5.89808 16.5112C5.85499 16.4049 5.83621 16.2904 5.84309 16.176V13.519L13.8431 3.75698C13.8591 3.73923 13.871 3.71823 13.8781 3.69542C13.8852 3.67261 13.8872 3.64854 13.8841 3.62486C13.8809 3.60118 13.8727 3.57847 13.8599 3.55829C13.8472 3.53811 13.8302 3.52095 13.8101 3.50798C13.7767 3.47103 13.7302 3.44858 13.6806 3.44541C13.6309 3.44223 13.5819 3.45858 13.5441 3.49098L4.01509 11.891L0.502095 10.431C0.358177 10.3779 0.233546 10.2827 0.144384 10.1579C0.0552214 10.0331 0.00564626 9.88434 0.00209485 9.73098C-0.0142148 9.57899 0.0190339 9.4258 0.0968839 9.29425C0.174734 9.1627 0.293016 9.05983 0.434095 9.00098L15.8021 0.104978Z" fill="white"/>
</svg>
