<svg width="22" height="16" viewBox="0 0 22 16" fill="none" xmlns="http://www.w3.org/2000/svg">
<path d="M20.9883 11.046C21.0778 10.5426 21.0778 10.0274 20.9883 9.524L21.8753 8.992C21.9246 8.96144 21.9624 8.91546 21.9828 8.86121C22.0033 8.80695 22.0052 8.74747 21.9883 8.692C21.7625 7.93347 21.373 7.2337 20.8473 6.642C20.8099 6.59876 20.7584 6.57006 20.7019 6.56092C20.6454 6.55178 20.5875 6.56278 20.5383 6.592L19.6513 7.124C19.2794 6.79362 18.849 6.53554 18.3823 6.363V5.298C18.3829 5.23921 18.3634 5.18198 18.3271 5.13579C18.2907 5.0896 18.2396 5.05721 18.1823 5.044C17.4338 4.86903 16.6549 4.86903 15.9063 5.044C15.8491 5.05721 15.798 5.0896 15.7616 5.13579C15.7253 5.18198 15.7058 5.23921 15.7063 5.298V6.363C15.2397 6.53554 14.8093 6.79362 14.4373 7.124L13.5503 6.592C13.5011 6.56298 13.4433 6.55209 13.3868 6.56122C13.3304 6.57035 13.2789 6.59893 13.2413 6.642C12.7157 7.2337 12.3262 7.93347 12.1003 8.692C12.0843 8.7475 12.0867 8.8067 12.107 8.86076C12.1274 8.91482 12.1647 8.96085 12.2133 8.992L13.1003 9.524C13.0109 10.0274 13.0109 10.5426 13.1003 11.046L12.2133 11.578C12.1641 11.6086 12.1263 11.6545 12.1059 11.7088C12.0854 11.763 12.0835 11.8225 12.1003 11.878C12.3271 12.6362 12.7165 13.3358 13.2413 13.928C13.2788 13.9712 13.3303 13.9999 13.3868 14.0091C13.4433 14.0182 13.5012 14.0072 13.5503 13.978L14.4373 13.446C14.8093 13.7764 15.2397 14.0345 15.7063 14.207V15.275C15.7058 15.3338 15.7253 15.391 15.7616 15.4372C15.798 15.4834 15.8491 15.5158 15.9063 15.529C16.6549 15.704 17.4338 15.704 18.1823 15.529C18.2396 15.5158 18.2907 15.4834 18.3271 15.4372C18.3634 15.391 18.3829 15.3338 18.3823 15.275V14.21C18.8492 14.0366 19.2796 13.7774 19.6513 13.446L20.5383 13.978C20.5876 14.007 20.6454 14.0179 20.7019 14.0088C20.7583 13.9997 20.8098 13.9711 20.8473 13.928C21.373 13.3363 21.7625 12.6365 21.9883 11.878C22.0044 11.8225 22.002 11.7633 21.9816 11.7092C21.9613 11.6552 21.924 11.6091 21.8753 11.578L20.9883 11.046ZM17.0523 12.018C16.8291 12.0137 16.6089 11.9655 16.4042 11.8761C16.1996 11.7866 16.0146 11.6578 15.8598 11.4968C15.705 11.3359 15.5835 11.1461 15.502 10.9381C15.4206 10.7302 15.381 10.5083 15.3853 10.285C15.381 10.0617 15.4206 9.83981 15.502 9.63188C15.5835 9.42395 15.705 9.23409 15.8598 9.07316C16.0146 8.91223 16.1996 8.78337 16.4042 8.69395C16.6089 8.60453 16.8291 8.55629 17.0523 8.552C17.2756 8.55629 17.4958 8.60453 17.7004 8.69395C17.9051 8.78337 18.0901 8.91223 18.2449 9.07316C18.3997 9.23409 18.5212 9.42395 18.6027 9.63188C18.6841 9.83981 18.7237 10.0617 18.7193 10.285C18.7279 10.7357 18.5571 11.1714 18.2445 11.4962C17.9319 11.821 17.5031 12.0093 17.0523 12.018ZM3.30035 6.855C3.89492 6.84265 4.46035 6.59511 4.87273 6.16661C5.2851 5.73811 5.5108 5.16361 5.50035 4.569C5.5108 3.97439 5.2851 3.39989 4.87273 2.97139C4.46035 2.54289 3.89492 2.29535 3.30035 2.283C2.70578 2.29535 2.14035 2.54289 1.72797 2.97139C1.31559 3.39989 1.0899 3.97439 1.10035 4.569C1.0899 5.16361 1.31559 5.73811 1.72797 6.16661C2.14035 6.59511 2.70578 6.84265 3.30035 6.855ZM11.0003 7.998C11.0653 7.998 11.1273 7.98 11.1933 7.977C11.4741 7.20048 11.8973 6.48319 12.4413 5.862C12.5659 5.72107 12.7188 5.60811 12.8902 5.53055C13.0615 5.45299 13.2473 5.41259 13.4353 5.412C13.6732 5.41136 13.9065 5.47679 14.1093 5.601L14.3813 5.765C14.4083 5.747 14.4363 5.733 14.4643 5.715C14.7157 5.17808 14.8471 4.59285 14.8493 4C14.8692 2.95905 14.4747 1.95285 13.7527 1.20272C13.0307 0.452592 12.0403 0.019966 10.9993 0C10.4839 0.00949066 9.97546 0.120547 9.50303 0.32681C9.0306 0.533073 8.60349 0.830491 8.24615 1.20204C7.88881 1.57359 7.60827 2.01197 7.42058 2.49208C7.23289 2.97219 7.14174 3.48461 7.15235 4C7.13306 5.04027 7.5275 6.04566 8.24901 6.79529C8.97053 7.54493 9.9601 7.97751 11.0003 7.998ZM14.6183 14.946C14.5393 14.903 14.4603 14.853 14.3843 14.807C14.1133 15.0188 13.783 15.1411 13.4393 15.157C13.2514 15.1557 13.0658 15.115 12.8946 15.0375C12.7234 14.96 12.5703 14.8474 12.4453 14.707C11.8089 13.989 11.3372 13.1405 11.0633 12.221C10.9695 11.8644 11.0076 11.486 11.1705 11.1553C11.3335 10.8246 11.6104 10.5638 11.9503 10.421C11.947 10.3283 11.947 10.2353 11.9503 10.142L11.6783 9.978C11.5515 9.90001 11.4378 9.80248 11.3413 9.689C11.2283 9.696 11.1183 9.71 11.0043 9.71C10.1865 9.70756 9.3805 9.51445 8.65035 9.146H8.36435C7.29404 9.1665 6.27558 9.61075 5.53243 10.3813C4.78928 11.1518 4.38214 12.1857 4.40035 13.256V14.285C4.39205 14.7313 4.56128 15.1626 4.87087 15.4842C5.18045 15.8058 5.60505 15.9913 6.05135 16H14.8313C14.6959 15.7821 14.6223 15.5315 14.6183 15.275V14.946ZM5.95135 8.663C5.75093 8.45342 5.51024 8.28648 5.24372 8.17221C4.97719 8.05793 4.69033 7.99868 4.40035 7.998H2.20035C1.60578 8.01035 1.04035 8.25789 0.627969 8.68639C0.215591 9.11489 -0.0101027 9.68939 0.000347374 10.284V11.427C-0.00270251 11.5744 0.0233475 11.7209 0.0770061 11.8582C0.130665 11.9955 0.210878 12.1209 0.313054 12.2272C0.415229 12.3334 0.537361 12.4185 0.672456 12.4775C0.807551 12.5365 0.952956 12.5683 1.10035 12.571H3.36635C3.46456 11.7637 3.74925 10.9904 4.1979 10.3121C4.64655 9.63383 5.24686 9.06925 5.95135 8.663Z" fill="#1E2327"/>
</svg>
