<svg width="18" height="14" viewBox="0 0 18 14" fill="none" xmlns="http://www.w3.org/2000/svg">
<path d="M16.3125 9.42242e-06C16.5371 -0.00398975 16.76 0.0393567 16.9668 0.127227C17.1735 0.215097 17.3595 0.345521 17.5125 0.51001C17.672 0.673929 17.7973 0.868027 17.8809 1.08094C17.9645 1.29386 18.0048 1.52132 17.9995 1.75001V12.25C18.0042 12.479 17.9631 12.7067 17.8786 12.9197C17.7941 13.1326 17.6679 13.3265 17.5075 13.49C17.3545 13.6545 17.1685 13.7849 16.9618 13.8728C16.755 13.9607 16.5321 14.004 16.3075 14H1.68747C1.46286 14.004 1.23992 13.9607 1.03316 13.8728C0.826412 13.7849 0.64048 13.6545 0.487473 13.49C0.32774 13.3262 0.202303 13.1321 0.118508 12.9192C0.0347128 12.7063 -0.00575562 12.4788 -0.00052751 12.25V1.75001C-0.0052289 1.52097 0.0358705 1.2933 0.120358 1.08037C0.204846 0.867431 0.331019 0.673518 0.491473 0.51001C0.64448 0.345521 0.830412 0.215097 1.03716 0.127227C1.24392 0.0393567 1.46686 -0.00398975 1.69147 9.42242e-06H16.3125ZM16.3125 1.75001H1.68747V3.24501C2.50747 3.92568 4.08947 5.21401 6.43347 7.11001L6.74947 7.40001C7.09968 7.72222 7.47597 8.01489 7.87447 8.27501C8.19414 8.54129 8.5857 8.70661 8.99947 8.75001C9.41314 8.7069 9.80468 8.54193 10.1245 8.27601C10.523 8.01557 10.8993 7.72257 11.2495 7.40001L11.5655 7.10801C13.9095 5.23668 15.4915 3.94834 16.3115 3.24301L16.3125 1.75001ZM1.68747 12.25H16.3125V5.46901L12.2335 8.82301C11.7864 9.22957 11.3042 9.59567 10.7925 9.91701C10.2605 10.274 9.63966 10.4758 8.99947 10.5C8.34888 10.4731 7.71749 10.2718 7.17147 9.91701C6.66759 9.58401 6.1859 9.21857 5.72947 8.82301L1.68747 5.46901V12.25Z" fill="#1E2327"/>
</svg>
