<svg width="17" height="17" viewBox="0 0 17 17" fill="none" xmlns="http://www.w3.org/2000/svg">
<path d="M14.631 0.417009L14.764 3.16501C13.1249 1.43351 10.8847 0.395732 8.504 0.26501H8.494C6.57697 0.265712 4.72028 0.935369 3.24414 2.15849C1.768 3.38161 0.764955 5.0815 0.408 6.96501C0.403418 6.98943 0.400743 7.01417 0.4 7.03901C0.4 7.1451 0.442143 7.24684 0.517157 7.32185C0.592172 7.39687 0.693913 7.43901 0.8 7.43901H2.428C2.51676 7.43559 2.60212 7.40399 2.6717 7.34879C2.74129 7.29359 2.79148 7.21766 2.815 7.13201C3.16544 5.88103 3.90421 4.7737 4.92472 3.96977C5.94523 3.16583 7.19474 2.70684 8.493 2.65901C9.43996 2.71152 10.3641 2.9697 11.2012 3.4156C12.0382 3.8615 12.7681 4.48442 13.34 5.24101L9.973 5.07501H9.954C9.84791 5.07501 9.74617 5.11715 9.67116 5.19217C9.59614 5.26718 9.554 5.36892 9.554 5.47501V7.04901C9.554 7.1551 9.59614 7.25684 9.67116 7.33185C9.74617 7.40687 9.84791 7.44901 9.954 7.44901H16.6C16.7061 7.44901 16.8078 7.40687 16.8828 7.33185C16.9579 7.25684 17 7.1551 17 7.04901V0.39701C17 0.290923 16.9579 0.189182 16.8828 0.114167C16.8078 0.0391527 16.7061 -0.00299072 16.6 -0.00299072H15.029C14.9229 -0.00299072 14.8212 0.0391527 14.7462 0.114167C14.6711 0.189182 14.629 0.290923 14.629 0.39701C14.631 0.40401 14.631 0.412009 14.631 0.417009ZM8.494 14.344C7.54676 14.2923 6.62225 14.0343 5.78506 13.5881C4.94786 13.142 4.21818 12.5184 3.647 11.761L7.027 11.923H7.046C7.15209 11.923 7.25383 11.8809 7.32884 11.8059C7.40386 11.7308 7.446 11.6291 7.446 11.523V9.95001C7.446 9.84392 7.40386 9.74218 7.32884 9.66717C7.25383 9.59215 7.15209 9.55001 7.046 9.55001H0.4C0.293913 9.55001 0.192172 9.59215 0.117157 9.66717C0.0421427 9.74218 0 9.84392 0 9.95001V16.602C0 16.6545 0.0103463 16.7066 0.0304482 16.7551C0.0505501 16.8036 0.0800139 16.8477 0.117157 16.8849C0.154301 16.922 0.198396 16.9515 0.246927 16.9716C0.295457 16.9917 0.347471 17.002 0.4 17.002H1.971C2.07709 17.002 2.17883 16.9599 2.25384 16.8849C2.32886 16.8098 2.371 16.7081 2.371 16.602C2.371 16.596 2.371 16.588 2.371 16.582L2.231 13.84C3.87017 15.5683 6.10858 16.6038 8.487 16.734H8.495C10.4122 16.7335 12.2691 16.064 13.7455 14.8409C15.2218 13.6177 16.225 11.9177 16.582 10.034C16.5861 10.0102 16.5885 9.98615 16.589 9.96201C16.589 9.90948 16.5787 9.85747 16.5586 9.80894C16.5384 9.76041 16.509 9.71631 16.4718 9.67917C16.4347 9.64202 16.3906 9.61256 16.3421 9.59246C16.2935 9.57236 16.2415 9.56201 16.189 9.56201H14.561C14.4722 9.56543 14.3869 9.59703 14.3173 9.65223C14.2477 9.70743 14.1975 9.78336 14.174 9.86901C13.8245 11.12 13.0866 12.2275 12.0668 13.0319C11.047 13.8362 9.79795 14.2957 8.5 14.344H8.494Z" fill="#3481C4"/>
</svg>
