<svg width="18" height="19" viewBox="0 0 18 19" fill="none" xmlns="http://www.w3.org/2000/svg">
<path d="M17.7725 11.163L16.1575 10.27C16.3205 9.42848 16.3205 8.56351 16.1575 7.722L17.7725 6.829C17.8608 6.78169 17.9298 6.7051 17.9678 6.61239C18.0058 6.51969 18.0102 6.41665 17.9805 6.321C17.5576 5.03459 16.8485 3.86082 15.9065 2.888C15.8347 2.81511 15.7411 2.76758 15.6399 2.7526C15.5386 2.73763 15.4353 2.75602 15.3455 2.805L13.7305 3.698C13.048 3.13646 12.2685 2.70467 11.4305 2.424V0.641999C11.4289 0.541071 11.3926 0.443757 11.3278 0.366377C11.263 0.288997 11.1736 0.236257 11.0745 0.216999C9.70975 -0.0733911 8.2992 -0.0733911 6.93447 0.216999C6.83539 0.236257 6.74594 0.288997 6.68112 0.366377C6.6163 0.443757 6.58006 0.541071 6.57847 0.641999V2.427C5.7403 2.71194 4.95948 3.14366 4.27247 3.702L2.66147 2.809C2.5719 2.75902 2.46832 2.74007 2.36686 2.75508C2.26539 2.77009 2.17174 2.81823 2.10047 2.892C1.155 3.8634 0.443914 5.03794 0.0214736 6.326C-0.00930701 6.42161 -0.00531558 6.52502 0.0327431 6.61797C0.0708018 6.71092 0.14048 6.78743 0.229474 6.834L1.84447 7.727C1.68149 8.56851 1.68149 9.43348 1.84447 10.275L0.230474 11.167C0.142169 11.2143 0.0731007 11.2909 0.0351415 11.3836C-0.00281764 11.4763 -0.00729696 11.5793 0.0224736 11.675C0.445058 12.9613 1.15383 14.1351 2.09547 15.108C2.16728 15.1809 2.26087 15.2284 2.36208 15.2434C2.4633 15.2584 2.56664 15.24 2.65647 15.191L4.27247 14.299C4.95493 14.8605 5.73446 15.2923 6.57247 15.573V17.358C6.57383 17.4597 6.61047 17.5578 6.67613 17.6355C6.74179 17.7132 6.8324 17.7657 6.93247 17.784C8.29719 18.0744 9.70775 18.0744 11.0725 17.784C11.1716 17.7649 11.2612 17.7122 11.326 17.6348C11.3909 17.5574 11.4271 17.46 11.4285 17.359V15.573C12.2645 15.2877 13.0432 14.8564 13.7285 14.299L15.3435 15.192C15.433 15.242 15.5366 15.2609 15.6381 15.2459C15.7396 15.2309 15.8332 15.1828 15.9045 15.109C16.848 14.1374 17.5574 12.9632 17.9785 11.676C18.0079 11.5798 18.0036 11.4765 17.9661 11.3831C17.9286 11.2898 17.8603 11.2121 17.7725 11.163ZM9.00047 11.9C8.21422 11.9158 7.45369 11.6196 6.88529 11.0761C6.31689 10.5327 5.98688 9.78617 5.96747 9C5.98688 8.21382 6.31689 7.46734 6.88529 6.92386C7.45369 6.38038 8.21422 6.08416 9.00047 6.1C9.78673 6.08416 10.5473 6.38038 11.1157 6.92386C11.6841 7.46734 12.0141 8.21382 12.0335 9C12.0141 9.78653 11.6838 10.5333 11.1149 11.0769C10.5461 11.6204 9.78507 11.9164 8.99847 11.9H9.00047Z" fill="#1E2327"/>
</svg>
