<svg width="16" height="13" viewBox="0 0 16 13" fill="none" xmlns="http://www.w3.org/2000/svg">
<path d="M0.889648 12.013V10.75C0.889648 9.071 4.51765 8.224 6.33465 8.224C8.15165 8.224 11.7796 9.071 11.7796 10.75V12.014L0.889648 12.013ZM12.3826 7.813C12.8307 7.36913 13.1864 6.84087 13.4291 6.25875C13.6718 5.67664 13.7968 5.05219 13.7968 4.4215C13.7968 3.79081 13.6718 3.16636 13.4291 2.58425C13.1864 2.00213 12.8307 1.47387 12.3826 1.03L13.4926 0C14.1193 0.553639 14.6211 1.23415 14.9648 1.99643C15.3085 2.7587 15.4862 3.58533 15.4862 4.4215C15.4862 5.25767 15.3085 6.0843 14.9648 6.84657C14.6211 7.60885 14.1193 8.28936 13.4926 8.843L12.3826 7.813ZM4.01965 4.437C4.01965 3.97202 4.15753 3.51747 4.41586 3.13085C4.67419 2.74423 5.04137 2.4429 5.47096 2.26496C5.90055 2.08702 6.37326 2.04046 6.82931 2.13117C7.28536 2.22189 7.70426 2.4458 8.03306 2.77459C8.36185 3.10339 8.58576 3.52229 8.67647 3.97834C8.76719 4.43439 8.72063 4.9071 8.54269 5.33669C8.36475 5.76628 8.06341 6.13345 7.67679 6.39179C7.29017 6.65012 6.83563 6.788 6.37065 6.788C5.74712 6.788 5.14914 6.54031 4.70824 6.09941C4.26734 5.65851 4.01965 5.06052 4.01965 4.437ZM10.0996 5.647C10.3777 5.29789 10.5291 4.86479 10.5291 4.4185C10.5291 3.97221 10.3777 3.53911 10.0996 3.19L11.2396 2.122C11.5639 2.41021 11.8234 2.76383 12.0011 3.15956C12.1788 3.5553 12.2707 3.98419 12.2707 4.418C12.2707 4.85181 12.1788 5.2807 12.0011 5.67643C11.8234 6.07217 11.5639 6.42579 11.2396 6.714L10.0996 5.647Z" fill="#3481C4"/>
</svg>
