<svg width="391" height="786" viewBox="0 0 391 786" fill="none" xmlns="http://www.w3.org/2000/svg">
<path d="M341 1H50C22.938 1 1 22.938 1 50V736C1 763.062 22.938 785 50 785H341C368.062 785 390 763.062 390 736V50C390 22.938 368.062 1 341 1Z" fill="white" stroke="#3481C4" stroke-width="2"/>
<path d="M344 765H48C44.0595 765.003 40.157 764.229 36.5158 762.723C32.8746 761.216 29.5662 759.007 26.7798 756.22C23.9934 753.434 21.7837 750.125 20.2772 746.484C18.7707 742.843 17.9969 738.941 18 735V48C17.9967 44.0594 18.7705 40.1569 20.2769 36.5156C21.7834 32.8744 23.9931 29.5659 26.7795 26.7795C29.5659 23.9931 32.8744 21.7834 36.5156 20.2769C40.1569 18.7705 44.0594 17.9967 48 18H92.252V32.684C92.257 37.1911 94.0497 41.5122 97.2367 44.6993C100.424 47.8863 104.745 49.679 109.252 49.684H282.752C287.259 49.679 291.58 47.8863 294.767 44.6993C297.954 41.5122 299.747 37.1911 299.752 32.684V18H344C347.941 17.9966 351.843 18.7702 355.485 20.2767C359.126 21.7831 362.434 23.9927 365.221 26.7792C368.007 29.5656 370.217 32.8742 371.723 36.5155C373.23 40.1568 374.003 44.0594 374 48V735C374.003 738.941 373.23 742.843 371.723 746.484C370.217 750.126 368.007 753.434 365.221 756.221C362.434 759.007 359.126 761.217 355.484 762.723C351.843 764.23 347.941 765.003 344 765Z" fill="white" stroke="#3481C4" stroke-width="2"/>
</svg>
