<svg width="53" height="53" viewBox="0 0 53 53" fill="none" xmlns="http://www.w3.org/2000/svg">
<path d="M36.4533 51.138C30.0401 52.6402 23.3665 52.6402 16.9533 51.138C13.3343 50.2993 10.0231 48.4624 7.39592 45.836C4.76873 43.2095 2.93092 39.8988 2.09132 36.28C0.589353 29.8667 0.589353 23.1932 2.09132 16.78C2.93012 13.1612 4.76711 9.85016 7.39357 7.22317C10.02 4.59617 13.3307 2.75851 16.9493 1.91898C23.2541 0.441576 29.8123 0.416271 36.1283 1.84498C39.8582 2.67588 43.2741 4.55233 45.976 7.25458C48.6779 9.95683 50.5539 13.373 51.3843 17.103C52.8132 23.419 52.7879 29.9772 51.3103 36.282C50.4709 39.8998 48.6337 43.2097 46.0075 45.8358C43.3812 48.4618 40.0712 50.2988 36.4533 51.138Z" fill="#3481C4"/>
<path d="M36.6489 15.7388L19.0559 13.6482C14.7141 13.1322 10.7761 16.2337 10.2601 20.5756L9.29772 28.6745C8.78177 33.0163 11.8833 36.9543 16.2251 37.4703L33.8181 39.5609C38.1599 40.0768 42.0979 36.9753 42.6139 32.6335L43.5763 24.5346C44.0922 20.1928 40.9907 16.2547 36.6489 15.7388Z" fill="white"/>
<path d="M25.0085 30.307L8.68945 14.995L10.6095 12.948L25.5015 26.922L46.2345 16.55L47.4895 19.059L25.0085 30.307Z" fill="#3481C4"/>
<path d="M12.3047 34.715L19.5377 23.3979L21.7317 25.1479L12.3047 34.715Z" fill="#3481C4"/>
<path d="M37.7463 37.8879L30.4883 25.9689L33.0193 24.7579L37.7463 37.8879Z" fill="#3481C4"/>
<path d="M12.043 44.701L13.243 34.537L22.98 35.691L12.043 44.701Z" fill="white"/>
<path d="M42.0017 24.172C45.6777 24.172 48.6577 21.192 48.6577 17.516C48.6577 13.84 45.6777 10.86 42.0017 10.86C38.3257 10.86 35.3457 13.84 35.3457 17.516C35.3457 21.192 38.3257 24.172 42.0017 24.172Z" fill="#E91C24"/>
<path d="M42.2588 21.55L40.7188 21.221L41.6188 17.005L41.7818 16.315L41.9688 15.563C41.6581 15.763 41.4444 15.893 41.3278 15.953L40.3468 16.447L39.8018 15.361L42.5478 13.993L43.8138 14.263L42.2588 21.55Z" fill="white"/>
</svg>
