<svg width="68" height="68" viewBox="0 0 68 68" fill="none" xmlns="http://www.w3.org/2000/svg">
<path d="M46.8796 66.51C38.4083 68.5001 29.591 68.5001 21.1196 66.51C16.3394 65.4008 11.966 62.9735 8.49609 59.5035C5.02617 56.0336 2.59879 51.6602 1.48963 46.88C-0.50045 38.4086 -0.50045 29.5914 1.48963 21.12C2.59879 16.3398 5.02617 11.9664 8.49609 8.49645C11.966 5.02653 16.3394 2.59915 21.1196 1.48999C29.4463 -0.462761 38.1079 -0.496956 46.4496 1.38999C51.3783 2.48744 55.8922 4.96657 59.4626 8.53701C63.0331 12.1074 65.5122 16.6213 66.6096 21.55C68.4966 29.8918 68.4624 38.5534 66.5096 46.88C65.4005 51.6602 62.9731 56.0336 59.5032 59.5035C56.0333 62.9735 51.6599 65.4008 46.8796 66.51Z" fill="#3481C4"/>
<path d="M46.8796 66.51C38.4083 68.5001 29.591 68.5001 21.1196 66.51C16.3394 65.4008 11.966 62.9735 8.49609 59.5035C5.02617 56.0336 2.59879 51.6602 1.48963 46.88C-0.50045 38.4086 -0.50045 29.5914 1.48963 21.12C2.59879 16.3398 5.02617 11.9664 8.49609 8.49645C11.966 5.02653 16.3394 2.59915 21.1196 1.48999C29.4463 -0.462761 38.1079 -0.496956 46.4496 1.38999C51.3783 2.48744 55.8922 4.96657 59.4626 8.53701C63.0331 12.1074 65.5122 16.6213 66.6096 21.55C68.4966 29.8918 68.4624 38.5534 66.5096 46.88C65.4005 51.6602 62.9731 56.0336 59.5032 59.5035C56.0333 62.9735 51.6599 65.4008 46.8796 66.51Z" fill="#3481C4"/>
<path d="M54.4996 23.47C53.733 22.4721 52.7745 21.6378 51.6805 21.0161C50.5865 20.3944 49.3792 19.9979 48.1296 19.85L22.9096 16.85C21.6471 16.7013 20.3675 16.8089 19.1476 17.1663C17.9276 17.5237 16.7923 18.1236 15.8096 18.93L32.4096 34.51L54.4996 23.47Z" fill="white"/>
<path d="M43.0004 33.39L48.5904 49L40.0004 34.88L31.7604 39L26.0004 33.61L15.0004 44.82L23.6004 31.33L13.4504 21.81C12.9101 22.8506 12.5709 23.9837 12.4504 25.15L10.9004 37.82C10.6737 39.7222 11.0305 41.6484 11.9234 43.3432C12.8164 45.038 14.2033 46.4214 15.9004 47.31L14.6404 58L25.4704 49.07L44.4004 51.33C45.6377 51.4749 46.8915 51.3742 48.0898 51.0337C49.2882 50.6932 50.4076 50.1197 51.3839 49.3459C52.3602 48.5721 53.1743 47.6132 53.7794 46.5243C54.3845 45.4354 54.7689 44.2377 54.9104 43L56.4104 30.33C56.5573 29.1311 56.469 27.9151 56.1504 26.75L43.0004 33.39Z" fill="white"/>
<path d="M54.2099 30.88C59.0645 30.88 62.9999 26.9446 62.9999 22.09C62.9999 17.2354 59.0645 13.3 54.2099 13.3C49.3553 13.3 45.4199 17.2354 45.4199 22.09C45.4199 26.9446 49.3553 30.88 54.2099 30.88Z" fill="#E91C24"/>
<path d="M54.5503 27.42L52.5503 26.99L53.7403 21.42L53.9503 20.51L54.2003 19.51C53.9259 19.6975 53.6422 19.871 53.3503 20.03L52.0003 20.68L51.2803 19.25L54.9003 17.44L56.5803 17.8L54.5503 27.42Z" fill="white"/>
</svg>
