<svg id="Layer_1" data-name="Layer 1" xmlns="http://www.w3.org/2000/svg" viewBox="0 0 473.27 68"><defs><style>.cls-1{fill:#fff;}.cls-2{fill:#3481c4;}.cls-3{fill:#e91c24;}</style></defs><title>logo</title><path class="cls-1" d="M100.48,49.88a13,13,0,0,1-9.67-3.63Q87.2,42.62,87.2,36V19a1.81,1.81,0,0,1,.52-1.28A1.69,1.69,0,0,1,89,17.19a1.76,1.76,0,0,1,1.3.52,1.78,1.78,0,0,1,.53,1.3V35.77c0,3.41.86,6.06,2.6,7.94a9.23,9.23,0,0,0,7.17,2.83,9.25,9.25,0,0,0,7.07-2.69c1.71-1.8,2.56-4.41,2.56-7.85V19a1.72,1.72,0,0,1,.55-1.3,1.77,1.77,0,0,1,1.28-.52,1.69,1.69,0,0,1,1.25.54,1.82,1.82,0,0,1,.53,1.28V35.72q0,6.86-3.61,10.5T100.48,49.88Z"/><path class="cls-1" d="M121.71,47.82V17.6a1.74,1.74,0,0,1,.51-1.26,1.62,1.62,0,0,1,1.23-.52,1.68,1.68,0,0,1,1.25.52,1.72,1.72,0,0,1,.53,1.26V47.82a1.74,1.74,0,0,1-.5,1.28,1.79,1.79,0,0,1-3-1.28Z"/><path class="cls-1" d="M140.94,49.79a7,7,0,0,1-4.87-1.63q-1.8-1.62-1.8-5V28.87h-1.92a1.49,1.49,0,0,1-1.07-.48,1.53,1.53,0,0,1,1.07-2.62h1.92V20.2a1.78,1.78,0,0,1,.5-1.26,1.65,1.65,0,0,1,1.23-.52,1.78,1.78,0,0,1,1.78,1.78v5.57h6.12a1.55,1.55,0,0,1,1.12.46,1.45,1.45,0,0,1,.48,1.09,1.47,1.47,0,0,1-.48,1.1,1.58,1.58,0,0,1-1.12.45h-6.12V42.66q0,3.93,4,3.93a7.25,7.25,0,0,0,1.41-.14l.73-.18a1.41,1.41,0,0,1,1.08.46,1.5,1.5,0,0,1,.43,1.05,1.37,1.37,0,0,1-1,1.37A9.11,9.11,0,0,1,140.94,49.79Z"/><path class="cls-1" d="M151.12,19v-.6a1.7,1.7,0,0,1,.59-1.34,2.11,2.11,0,0,1,1.46-.53,2.21,2.21,0,0,1,1.51.53,1.73,1.73,0,0,1,.59,1.34V19a1.73,1.73,0,0,1-.59,1.34,2.21,2.21,0,0,1-1.51.53,2.11,2.11,0,0,1-1.46-.53A1.7,1.7,0,0,1,151.12,19Zm.32,28.85V27.32a1.73,1.73,0,0,1,.5-1.25,1.63,1.63,0,0,1,1.23-.53A1.71,1.71,0,0,1,155,27.32v20.5a1.74,1.74,0,0,1-.5,1.28,1.78,1.78,0,0,1-3-1.28Z"/><path class="cls-1" d="M162.76,47.82V27.32a1.77,1.77,0,0,1,.5-1.25,1.66,1.66,0,0,1,1.23-.53,1.78,1.78,0,0,1,1.26.5,1.7,1.7,0,0,1,.52,1.28v2.42q3-4.47,7.63-4.47a7.84,7.84,0,0,1,7.58,4.7,9.47,9.47,0,0,1,8.31-4.7,8.29,8.29,0,0,1,6.41,2.55,9.86,9.86,0,0,1,2.35,6.94V47.82a1.73,1.73,0,0,1-.5,1.26,1.63,1.63,0,0,1-1.23.52A1.78,1.78,0,0,1,195,47.82V35.59a7.77,7.77,0,0,0-1.62-5.28,5.68,5.68,0,0,0-4.5-1.85,6.08,6.08,0,0,0-4.63,2,7.45,7.45,0,0,0-1.85,5.34v12a1.79,1.79,0,0,1-1.78,1.78,1.65,1.65,0,0,1-1.24-.52,1.78,1.78,0,0,1-.5-1.26V35.49a7.59,7.59,0,0,0-1.62-5.15,5.58,5.58,0,0,0-4.45-1.88,6,6,0,0,0-4.7,2.1,7.73,7.73,0,0,0-1.88,5.35V47.82a1.7,1.7,0,0,1-.5,1.28,1.67,1.67,0,0,1-1.23.5,1.7,1.7,0,0,1-1.28-.52A1.78,1.78,0,0,1,162.76,47.82Z"/><path class="cls-1" d="M212.84,49.88a10,10,0,0,1-6.18-2A6.36,6.36,0,0,1,204,42.53v-.1a6.53,6.53,0,0,1,2.74-5.63,12.24,12.24,0,0,1,7.35-2,26.56,26.56,0,0,1,7.26,1V35a6.09,6.09,0,0,0-1.83-4.79,7.48,7.48,0,0,0-5.2-1.65,14.93,14.93,0,0,0-6.12,1.33,1.61,1.61,0,0,1-.64.14,1.5,1.5,0,0,1-1.09-.46,1.53,1.53,0,0,1,.5-2.51,19.16,19.16,0,0,1,7.71-1.6c3.35,0,5.9.87,7.63,2.6s2.42,3.91,2.42,6.9V47.87a1.71,1.71,0,0,1-.48,1.23,1.61,1.61,0,0,1-1.21.5,1.64,1.64,0,0,1-1.21-.48,1.57,1.57,0,0,1-.48-1.16V45.81A10.16,10.16,0,0,1,212.84,49.88Zm.69-2.79a8.81,8.81,0,0,0,5.59-1.8,5.58,5.58,0,0,0,2.31-4.59V38.42a24.9,24.9,0,0,0-6.94-1,8.42,8.42,0,0,0-5.09,1.33,4.18,4.18,0,0,0-1.81,3.56v.09a4.05,4.05,0,0,0,1.71,3.42A6.84,6.84,0,0,0,213.53,47.09Z"/><path class="cls-1" d="M239.55,49.79a7,7,0,0,1-4.86-1.63q-1.8-1.62-1.8-5V28.87H231a1.47,1.47,0,0,1-1.07-.48,1.45,1.45,0,0,1-.48-1.07A1.55,1.55,0,0,1,231,25.77h1.92V20.2a1.73,1.73,0,0,1,.5-1.26,1.62,1.62,0,0,1,1.23-.52,1.78,1.78,0,0,1,1.78,1.78v5.57h6.12a1.55,1.55,0,0,1,1.12.46,1.45,1.45,0,0,1,.48,1.09,1.47,1.47,0,0,1-.48,1.1,1.58,1.58,0,0,1-1.12.45H236.4V42.66c0,2.62,1.33,3.93,4,3.93a7.35,7.35,0,0,0,1.42-.14l.73-.18a1.39,1.39,0,0,1,1.07.46,1.47,1.47,0,0,1,.44,1.05,1.37,1.37,0,0,1-1,1.37A9.13,9.13,0,0,1,239.55,49.79Z"/><path class="cls-1" d="M268.27,46.36a12.39,12.39,0,0,1-8.9,3.56A11.31,11.31,0,0,1,251,46.47a12,12,0,0,1-3.4-8.83v-.09a12.48,12.48,0,0,1,3.24-8.72,10.45,10.45,0,0,1,8.08-3.56,9.92,9.92,0,0,1,8,3.51,12.67,12.67,0,0,1,3,8.45,1.57,1.57,0,0,1-.48,1.16,1.59,1.59,0,0,1-1.17.48H251.15a8.73,8.73,0,0,0,2.71,5.87,8.06,8.06,0,0,0,5.6,2.12,9.73,9.73,0,0,0,6.8-2.74,1.62,1.62,0,0,1,1-.41,1.53,1.53,0,0,1,1.09.44,1.43,1.43,0,0,1,.46,1.07A1.4,1.4,0,0,1,268.27,46.36ZM251.15,36.27h15.2a9.71,9.71,0,0,0-2.24-5.75,6.61,6.61,0,0,0-5.29-2.28,6.8,6.8,0,0,0-5.18,2.28A9.62,9.62,0,0,0,251.15,36.27Z"/><path class="cls-1" d="M295.85,47l-9-25.11a4.27,4.27,0,0,1-.28-1.33,3.22,3.22,0,0,1,1.05-2.44,3.64,3.64,0,0,1,2.56-1,3.43,3.43,0,0,1,2.15.71,3.73,3.73,0,0,1,1.27,1.8L300,39.24l6.39-19.41A3.54,3.54,0,0,1,310,17.05h.55a3.53,3.53,0,0,1,3.56,2.78l6.39,19.41,6.35-19.59a3.71,3.71,0,0,1,1.26-1.8,3.31,3.31,0,0,1,2.12-.71,3.43,3.43,0,0,1,2.47,1,3.28,3.28,0,0,1,1,2.4,4.61,4.61,0,0,1-.27,1.37L324.43,47q-1.05,2.88-3.65,2.88H320q-2.6,0-3.6-2.88l-6.3-18.31L303.84,47c-.67,1.92-1.88,2.88-3.61,2.88h-.73C297.76,49.88,296.55,48.92,295.85,47Z"/><path class="cls-1" d="M339,46.13V20.93a3.5,3.5,0,0,1,3.51-3.52h9.54c3.78,0,6.76,1,9,3a10.4,10.4,0,0,1,3.29,8v.09a10,10,0,0,1-3.65,8.29,14.34,14.34,0,0,1-9.27,2.95h-5.34v6.34a3.52,3.52,0,1,1-7,0Zm7-12.6h5.57a5.82,5.82,0,0,0,4.06-1.37,4.47,4.47,0,0,0,1.51-3.47V28.6A4.37,4.37,0,0,0,355.7,25a6.34,6.34,0,0,0-4.2-1.26h-5.43Z"/><path class="cls-1" d="M392.68,49.83a20.12,20.12,0,0,1-12-3.83,3,3,0,0,1-1.33-2.65,3.1,3.1,0,0,1,1-2.31,3.23,3.23,0,0,1,2.33-.93,3.41,3.41,0,0,1,2,.64,13.67,13.67,0,0,0,8.17,2.87,6.1,6.1,0,0,0,3.38-.8,2.5,2.5,0,0,0,1.23-2.21v-.09a2.57,2.57,0,0,0-1.28-2.22A19.72,19.72,0,0,0,391,36.45a36.34,36.34,0,0,1-4.42-1.34,14.67,14.67,0,0,1-3.22-1.76,6.52,6.52,0,0,1-2.24-2.72,9.86,9.86,0,0,1-.71-3.95v-.09a8.67,8.67,0,0,1,3.13-7A12,12,0,0,1,391.59,17a18.52,18.52,0,0,1,10.13,2.83,3,3,0,0,1,1.56,2.78,3.09,3.09,0,0,1-1,2.31,3.24,3.24,0,0,1-2.33.94,3.44,3.44,0,0,1-1.78-.51,13.49,13.49,0,0,0-6.71-2.14,5.17,5.17,0,0,0-3,.77,2.37,2.37,0,0,0-1.07,2V26a2.53,2.53,0,0,0,1.32,2.33,25.75,25.75,0,0,0,5.57,1.87,19.41,19.41,0,0,1,7.67,3.5,7.6,7.6,0,0,1,2.47,6.09v.09a8.9,8.9,0,0,1-3.22,7.29A13.08,13.08,0,0,1,392.68,49.83Z"/><path class="cls-1" d="M410.53,46.22V20.75a3.52,3.52,0,0,1,3.52-3.52h.78A3.5,3.5,0,0,1,418,19.06l8.5,13.83L435.05,19a3.5,3.5,0,0,1,3.15-1.78H439a3.5,3.5,0,0,1,3.51,3.52V46.13A3.5,3.5,0,0,1,439,49.65a3.31,3.31,0,0,1-2.44-1,3.36,3.36,0,0,1-1-2.49V30.2l-6.16,9.49a3.28,3.28,0,0,1-5.85,0l-6.07-9.35V46.22a3.29,3.29,0,0,1-1,2.42,3.35,3.35,0,0,1-2.46,1,3.45,3.45,0,0,1-3.43-3.43Z"/><path class="cls-1" d="M461.53,49.83a20.12,20.12,0,0,1-12-3.83,3,3,0,0,1-1.33-2.65,3.1,3.1,0,0,1,1-2.31,3.23,3.23,0,0,1,2.33-.93,3.41,3.41,0,0,1,2,.64,13.67,13.67,0,0,0,8.17,2.87,6.1,6.1,0,0,0,3.38-.8,2.5,2.5,0,0,0,1.23-2.21v-.09A2.55,2.55,0,0,0,465,38.3a19.72,19.72,0,0,0-5.16-1.85,36.34,36.34,0,0,1-4.42-1.34,14.67,14.67,0,0,1-3.22-1.76A6.52,6.52,0,0,1,450,30.63a9.86,9.86,0,0,1-.71-3.95v-.09a8.67,8.67,0,0,1,3.13-7A12,12,0,0,1,460.44,17a18.52,18.52,0,0,1,10.13,2.83,3,3,0,0,1,1.56,2.78,3.09,3.09,0,0,1-1,2.31,3.24,3.24,0,0,1-2.33.94,3.47,3.47,0,0,1-1.78-.51,13.46,13.46,0,0,0-6.71-2.14,5.19,5.19,0,0,0-3,.77,2.37,2.37,0,0,0-1.07,2V26a2.53,2.53,0,0,0,1.32,2.33,25.75,25.75,0,0,0,5.57,1.87,19.41,19.41,0,0,1,7.67,3.5,7.6,7.6,0,0,1,2.47,6.09v.09a8.9,8.9,0,0,1-3.22,7.29A13.08,13.08,0,0,1,461.53,49.83Z"/><path class="cls-2" d="M46.88,66.51a56.32,56.32,0,0,1-25.76,0A26.24,26.24,0,0,1,1.49,46.88a56.32,56.32,0,0,1,0-25.76A26.24,26.24,0,0,1,21.12,1.49a56.42,56.42,0,0,1,25.33-.1A26.57,26.57,0,0,1,66.61,21.55a56.42,56.42,0,0,1-.1,25.33A26.24,26.24,0,0,1,46.88,66.51Z"/><path class="cls-1" d="M54.5,23.47a9.43,9.43,0,0,0-6.37-3.62l-25.22-3a9.45,9.45,0,0,0-7.1,2.08l16.6,15.58Z"/><path class="cls-1" d="M43,33.39,48.59,49,40,34.88,31.76,39,26,33.61,15,44.82,23.6,31.33,13.45,21.81a9.33,9.33,0,0,0-1,3.34L10.9,37.82a9.45,9.45,0,0,0,5,9.49L14.64,58l10.83-8.93L44.4,51.33A9.47,9.47,0,0,0,54.91,43l1.5-12.67a9.29,9.29,0,0,0-.26-3.58Z"/><circle class="cls-3" cx="54.21" cy="22.09" r="8.79"/><path class="cls-1" d="M54.55,27.42l-2-.43,1.19-5.57.21-.91.25-1a9.9,9.9,0,0,1-.85.52L52,20.68l-.72-1.43,3.62-1.81,1.68.36Z"/></svg>